<?xml version="1.0" encoding="UTF-8"?>
<!DOCTYPE svg PUBLIC "-//W3C//DTD SVG 1.1//EN" "http://www.w3.org/Graphics/SVG/1.1/DTD/svg11.dtd">
<!-- Creator: CorelDRAW -->
<svg xmlns="http://www.w3.org/2000/svg" xml:space="preserve" width="210mm" height="297mm" version="1.1" style="shape-rendering:geometricPrecision; text-rendering:geometricPrecision; image-rendering:optimizeQuality; fill-rule:evenodd; clip-rule:evenodd"
viewBox="0 0 21000 29700"
 xmlns:xlink="http://www.w3.org/1999/xlink">
 <defs>
  <style type="text/css">
   <![CDATA[
    .fil2 {fill:#0A7FA7}
    .fil1 {fill:#189CC2}
    .fil3 {fill:#1BA0E1}
    .fil0 {fill:#434343;fill-rule:nonzero}
   ]]>
  </style>
 </defs>
 <g id="Layer_x0020_1">
  <metadata id="CorelCorpID_0Corel-Layer"/>
  <g id="Traveloka.cdr">
   <path class="fil0" d="M622 16999c-182,-127 -329,-354 -329,-756l0 -1067 -214 0 -79 0 0 -79 0 -252 0 -79 79 0 219 0 0 -553 0 -79 78 0 298 0 79 0 0 79 0 553 486 0 78 0 0 79 0 252 0 79 -78 0 -486 0 0 1036c0,187 46,306 110,381 93,107 230,128 318,128 15,0 31,0 43,-1l0 0c13,-1 28,-2 42,-6l96 -21 0 98 0 270 0 66 -66 11c-17,3 -40,6 -67,8 -23,1 -48,2 -75,2 -139,0 -352,-23 -532,-149zm1417 131l-302 0 -79 0 0 -78 0 -2225 0 -78 79 0 298 0 78 0 0 78 0 244c44,-60 94,-115 150,-163 132,-112 294,-181 478,-181 23,0 48,1 72,4 23,2 46,6 67,11l60 15 0 62 0 296 0 109 -103 -35c-1,0 -11,-1 -26,-2 -19,-1 -40,-2 -61,-2 -194,0 -338,97 -439,239l0 0c-133,188 -193,454 -193,686l0 942 0 78 -79 0zm1224 -153c-143,-122 -236,-297 -236,-522 0,-408 257,-622 573,-735 298,-106 647,-118 866,-118l55 0c-3,-169 -46,-285 -117,-359 -82,-86 -208,-120 -356,-120 -103,0 -207,18 -305,50 -102,34 -199,84 -284,147l-70 50 -44 -73 -137 -230 -35 -58 51 -43c97,-81 230,-150 379,-197 146,-47 307,-73 463,-73 292,0 520,82 677,243 156,159 237,390 237,689l0 1424 0 78 -78 0 -289 0 -79 0 0 -78 0 -173c-52,59 -112,112 -180,156 -138,92 -305,149 -492,149 -220,0 -440,-70 -599,-207zm571 -914c-190,56 -343,163 -343,365 0,90 40,182 118,248 70,59 172,98 306,98 174,0 315,-83 417,-207 122,-148 189,-354 189,-546l0 -23 -50 0c-169,0 -427,3 -637,65zm2668 1067l-329 0 -53 0 -20 -50 -862 -2224 -42 -107 115 0 324 0 54 0 20 51 618 1632 0 0c3,8 6,17 8,25 3,-8 6,-17 9,-25l0 0 618 -1632 20 -51 54 0 320 0 114 0 -41 106 -853 2225 -20 50 -54 0zm1387 -300c-221,-219 -354,-527 -354,-888 0,-374 126,-677 329,-891 217,-230 523,-355 856,-355 318,0 562,116 733,303 186,205 280,492 280,801 0,25 -2,52 -3,80 -2,22 -4,50 -7,78l-6 71 -72 0 -1633 0c21,212 101,380 219,500 144,146 345,223 565,223 112,0 225,-23 332,-65 109,-42 211,-104 296,-180l70 -64 49 82 138 230 33 55 -47 43c-111,102 -253,184 -405,241 -154,58 -319,90 -475,90 -357,0 -673,-131 -898,-354zm363 -1560c-98,88 -173,209 -213,363l1224 0c-19,-159 -76,-282 -156,-369 -100,-110 -242,-163 -395,-163 -174,0 -336,58 -460,169zm2115 1774c-125,-89 -223,-245 -223,-518l0 -2583 0 -79 79 0 302 0 79 0 0 79 0 2516c0,122 24,188 59,222 31,29 75,36 116,36 10,0 23,0 29,-1 9,0 19,-1 29,-3l91 -15 0 93 0 270 0 66 -66 11c-14,2 -31,5 -52,7 -23,2 -47,3 -71,3 -103,0 -248,-17 -372,-104zm1082 -224c-224,-224 -362,-536 -362,-891 0,-350 138,-656 363,-876 227,-223 543,-357 893,-357 351,0 668,134 897,357 225,220 365,527 365,876 0,355 -139,666 -365,890 -228,228 -546,365 -897,365 -350,0 -666,-137 -894,-364zm334 -1464c-141,143 -228,344 -228,573 0,236 86,441 226,587 143,148 342,236 562,236 222,0 422,-88 565,-237 141,-146 228,-350 228,-586 0,-229 -87,-429 -229,-573 -143,-146 -343,-233 -564,-233 -220,0 -418,87 -560,233zm2610 1774l-303 0 -78 0 0 -78 0 -3109 0 -79 78 0 303 0 78 0 0 79 0 1655 244 0 643 -819 24 -30 38 0 364 0 164 0 -103 128 -744 927 828 1203 84 123 -149 0 -364 0 -42 0 -23 -35 -719 -1075 -245 0 0 1032 0 78 -78 0zm1837 -153c-143,-122 -235,-297 -235,-522 0,-408 256,-622 572,-735 298,-106 648,-118 866,-118l55 0c-3,-169 -45,-285 -116,-359 -83,-86 -209,-120 -356,-120 -104,0 -208,18 -306,50 -102,34 -198,84 -284,147l-69 50 -44 -73 -138 -230 -34 -58 50 -43c97,-81 231,-150 379,-197 146,-47 307,-73 463,-73 292,0 520,82 677,243 156,159 238,390 238,689l0 1424 0 78 -79 0 -289 0 -79 0 0 -78 0 -173c-52,59 -112,112 -180,156 -138,92 -305,149 -492,149 -220,0 -440,-70 -599,-207zm571 -914c-190,56 -342,163 -342,365 0,90 39,182 117,248 70,59 172,98 306,98 174,0 316,-83 417,-207 123,-148 189,-354 189,-546l0 -23 -50 0c-169,0 -427,3 -637,65z"/>
   <path class="fil1" d="M19688 14981c3,-1 6,-3 8,-5 -120,-358 379,-963 1304,-1976 -748,92 -1326,282 -1735,570 40,586 181,1057 423,1411z"/>
   <path class="fil2" d="M19688 14981c3,-1 6,-3 8,-5 -4,-12 -7,-24 -10,-37 -116,-443 -164,-956 -142,-1538 -100,52 -194,108 -279,169 40,586 181,1057 423,1411z"/>
   <path class="fil3" d="M19996 15495c198,101 361,153 506,128 -974,-382 -1379,-1417 -1213,-3107 -350,69 -634,229 -832,496 -173,233 -117,528 24,923 19,53 42,338 -76,443 -44,39 -113,9 -174,-31 -207,-118 -379,-116 -516,4 -378,-64 -652,-99 -822,-104 242,76 522,154 836,246 134,39 249,131 339,270 186,285 712,440 1221,513 191,28 455,90 707,219z"/>
  </g>
 </g>
</svg>
